<svg height="48" version="1.1" width="48" xmlns="http://www.w3.org/2000/svg">
    <defs>
        <linearGradient gradientUnits="userSpaceOnUse" id="color-1" x1="0" x2="0" y1="0" y2="0">
            <stop offset="1" stop-color="#000000" stop-opacity="0"></stop>
            <stop offset="1" stop-color="#000000" stop-opacity="0"></stop>
        </linearGradient>
        <linearGradient gradientUnits="userSpaceOnUse" id="color-2" x1="7.28005" x2="45.65977"
            y1="18.4107" y2="34.52914">
            <stop offset="0.98" stop-color="#000000" stop-opacity="0.27"></stop>
            <stop offset="1" stop-color="#000000" stop-opacity="0"></stop>
        </linearGradient>
        <filter id="dropshadow-base">
            <feColorMatrix type="matrix"
                values="0 0 0 0 0  0 0 0 0 0  0 0 0 0 0  0 0 0 .8 0"></feColorMatrix>
            <feOffset dx="0" dy="1"></feOffset>
            <feGaussianBlur stdDeviation="1"></feGaussianBlur>
            <feComposite in="SourceGraphic"></feComposite>
        </filter>
        <filter height="130%" id="dropshadow-banner" width="120%" x="-10%" y="-10%">
            <feColorMatrix type="matrix"
                values="0 0 0 0 0  0 0 0 0 0  0 0 0 0 0  0 0 0 .4 0"></feColorMatrix>
            <feOffset dx="0" dy="1"></feOffset>
            <feGaussianBlur stdDeviation="0.5"></feGaussianBlur>
            <feComposite in="SourceGraphic"></feComposite>
        </filter>
    </defs>
    <g style="mix-blend-mode: normal" fill="none" fill-rule="nonzero" font-family="none"
        font-size="none" font-weight="none" stroke="none" stroke-dasharray="" stroke-dashoffset="0"
        stroke-linecap="butt" stroke-linejoin="miter" stroke-miterlimit="10" stroke-width="none"
        text-anchor="none">
        <path
            d="M2,24c0,-12.15026 9.84974,-22 22,-22c12.15026,0 22,9.84974 22,22c0,12.15026 -9.84974,22 -22,22c-12.15026,0 -22,-9.84974 -22,-22z"
            fill="#512da8" id="base 1 5" stroke-width="1"></path>
        <path d="" fill="url(#color-1)" stroke-width="1"></path>
        <path
            d="M14,24c0,-5.52285 4.47715,-10 10,-10c5.52285,0 10,4.47715 10,10c0,5.52285 -4.47715,10 -10,10c-5.52285,0 -10,-4.47715 -10,-10z"
            fill="none" id="base 1 10 1 1" stroke-width="0"
            transform="translate(-32.74783,-32.74783) scale(2.36449,2.36449)"></path>
        <g>
            <g>
                <path
                    d="M0.35507,24c0,-13.05873 10.5862,-23.64493 23.64493,-23.64493c13.05873,0 23.64493,10.5862 23.64493,23.64493c0,13.05873 -10.5862,23.64493 -23.64493,23.64493c-13.05873,0 -23.64493,-10.5862 -23.64493,-23.64493z"
                    fill="#1976d2" id="base 1 10 1" stroke-width="1"></path>
                <path
                    d="M9.91436,18.4107c3.3201,0 3.68383,0.05672 4.72093,0.73601c0.18296,0.11984 0.34547,0.25046 0.48819,0.39319v0l3.86914,3.86914l1.83185,-4.99833h2.55852l4.93985,4.93985l0.0682,0.1886c0.01943,0.05373 0.11325,0.30806 0.26012,0.70544c-0.01415,-0.06649 -0.02836,-0.13325 -0.04264,-0.20028c-0.64123,-3.01148 -1.16587,-5.51101 -1.16587,-5.55452c0,-0.057 0.36983,-0.07908 1.32407,-0.07908h1.32407l2.31108,2.31108l0.4972,-2.27679h2.32454l2.38548,2.38548c0.24921,-1.35062 0.44285,-2.34652 0.46268,-2.36987c0.02474,-0.02913 0.63071,-0.04456 1.34658,-0.0343l1.30158,0.01868l4.93985,4.93985l-1.14806,5.41367c-0.63143,2.97752 -1.16595,5.48498 -1.18784,5.57214l-0.03978,0.15847h-2.78473l-2.42414,-2.42414c-0.27663,1.2038 -0.49515,2.14942 -0.51678,2.23554l-0.04735,0.1886h-1.39846c-0.75745,0 -1.37929,-0.01518 -1.39802,-0.03391l-3.60137,-3.60137c0.71119,1.91896 1.28714,3.47155 1.30514,3.51667c0.04555,0.11419 -0.03822,0.1203 -1.41292,0.10288l-1.46134,-0.01853l-2.07156,-2.07156l-2.26336,-0.02231l-0.14644,0.464c-0.08054,0.25519 -0.22928,0.73402 -0.33053,1.06408l-0.18411,0.60008h-1.43944c-0.99727,0 -1.35356,-0.01493 -1.4038,-0.06516l-0.83528,-0.83528c0.2464,0.48844 0.4029,0.80943 0.4029,0.83049c0,0.04529 -0.50719,0.06992 -1.43995,0.06992h-1.43995l-3.42946,-3.42946v3.42946h-2.74321l-4.93985,-4.93985l-0.00003,-5.58926v-5.5893zM25.48805,24.10435l-0.24434,0.6667l0.78057,0.78057c-0.17459,-0.47113 -0.35528,-0.9588 -0.53623,-1.44727zM15.43724,29.58585c0.58385,-0.0082 0.89542,-0.03101 0.89542,-0.06651c0,-0.02373 -0.19896,-0.4288 -0.50142,-1.02527h-0.86813l-2.74321,-2.74321v0.61764zM15.65604,23.35221c-0.10245,-0.00052 -0.20834,-0.00088 -0.31787,-0.00115l0.21639,0.21639c0.03662,-0.06968 0.07043,-0.1414 0.10148,-0.21525zM33.12143,26.97361c0.00921,0.04351 0.01848,0.08727 0.0278,0.13128c0.00642,-0.02792 0.01286,-0.05597 0.01934,-0.08415zM38.83373,27.33266l-1.52411,-1.52411l-0.13122,0.60087l1.52671,1.52671c0.03995,-0.1873 0.08295,-0.38907 0.12862,-0.60347z"
                    fill="url(#color-2)" stroke-width="1"></path>
                <path
                    d="M7.28005,24v-5.5893h2.6343c3.3201,0 3.68383,0.0567 4.72093,0.73601c0.88861,0.58205 1.29522,1.41869 1.29215,2.65871c-0.00354,1.42794 -0.48729,2.3312 -1.58925,2.96742l-0.3298,0.19042l1.16214,2.24309c0.63918,1.2337 1.16214,2.27456 1.16214,2.31302c0,0.0453 -0.50719,0.06992 -1.43995,0.06992h-1.43995l-0.99487,-1.98883l-0.99487,-1.98883h-0.71986h-0.71986v1.98883v1.98883h-1.37161h-1.37161zM12.32816,23.45297c0.61374,-0.18226 0.91941,-0.66794 0.91686,-1.45674c-0.00178,-0.54918 -0.15283,-0.9349 -0.47093,-1.20256c-0.32007,-0.26933 -0.61653,-0.32475 -1.73928,-0.32517l-1.01156,-0.00035v1.54306v1.54306h0.98196c0.66624,0 1.0916,-0.03255 1.32294,-0.10125zM16.75994,29.50357c0.01678,-0.04715 0.93816,-2.56233 2.04751,-5.5893l2.01701,-5.50357h1.27927h1.27927l0.0682,0.1886c0.13714,0.37922 3.98041,10.75368 4.02734,10.87136c0.04555,0.11421 -0.03822,0.1203 -1.41291,0.10287l-1.46133,-0.01853l-0.3186,-1.0287l-0.3186,-1.0287l-1.84884,-0.01822l-1.84884,-0.01822l-0.14644,0.464c-0.08053,0.25519 -0.22928,0.73402 -0.33053,1.06408l-0.18411,0.60008h-1.43944c-1.1221,0 -1.43271,-0.01889 -1.40894,-0.08572zM23.1515,24.8744c-0.09114,-0.29233 -0.35847,-1.15522 -0.59406,-1.91753c-0.23559,-0.76232 -0.44684,-1.36411 -0.46944,-1.33731c-0.04152,0.04922 -1.16049,3.65607 -1.16049,3.74067c0,0.02512 0.53769,0.04568 1.19484,0.04568h1.19484zM29.77437,29.55452c0,-0.01913 -0.52464,-2.49872 -1.16587,-5.5102c-0.64123,-3.01148 -1.16587,-5.51102 -1.16587,-5.55452c0,-0.057 0.36983,-0.07908 1.32407,-0.07908h1.32407l0.60061,3.309c0.33033,1.81995 0.62284,3.38167 0.65001,3.47048c0.03423,0.11189 0.28098,-0.89896 0.80353,-3.29186l0.75413,-3.45334h1.16228h1.16228l0.75583,3.41164c0.41571,1.87641 0.77125,3.41163 0.79012,3.41161c0.01886,-0.00002 0.30945,-1.51982 0.64575,-3.37736c0.33631,-1.85752 0.63172,-3.40115 0.65647,-3.43028c0.02475,-0.02913 0.63071,-0.04456 1.34658,-0.03429l1.30159,0.01867l-1.14806,5.41367c-0.63143,2.97752 -1.16595,5.48499 -1.18782,5.57214l-0.03978,0.15847h-1.39236h-1.39236l-0.73831,-3.13755c-0.40607,-1.72565 -0.74954,-3.1489 -0.76327,-3.16279c-0.01372,-0.01388 -0.04227,0.04784 -0.06343,0.13716c-0.02116,0.08932 -0.32874,1.4277 -0.68351,2.97419c-0.35477,1.54649 -0.66635,2.89665 -0.69239,3.00039l-0.04735,0.1886h-1.39846c-0.76915,0 -1.39846,-0.01565 -1.39846,-0.03478z"
                    fill="none" id="path3763 1 1 1" stroke-width="0"></path>
                <path
                    d="M7.28005,18.4107h2.6343c3.3201,0 3.68383,0.0567 4.72093,0.73601c0.88861,0.58205 1.29522,1.41869 1.29215,2.65871c-0.00354,1.42794 -0.48729,2.3312 -1.58925,2.96742l-0.3298,0.19042l1.16214,2.24309c0.63918,1.2337 1.16214,2.27456 1.16214,2.31302c0,0.0453 -0.50719,0.06992 -1.43995,0.06992h-1.43995l-0.99487,-1.98883l-0.99487,-1.98883h-1.43973v3.97766h-2.74321zM12.32816,23.45297c0.61374,-0.18226 0.91941,-0.66794 0.91686,-1.45674c-0.00178,-0.54918 -0.15283,-0.9349 -0.47093,-1.20256c-0.32007,-0.26933 -0.61653,-0.32475 -1.73928,-0.32517l-1.01156,-0.00035v3.08611h0.98196c0.66624,0 1.0916,-0.03255 1.32294,-0.10125zM16.75994,29.50357c0.01678,-0.04715 0.93816,-2.56233 2.04751,-5.5893l2.01701,-5.50357h2.55853l0.0682,0.1886c0.13714,0.37922 3.98041,10.75368 4.02734,10.87136c0.04555,0.11421 -0.03822,0.1203 -1.41291,0.10287l-1.46133,-0.01853l-0.3186,-1.0287l-0.3186,-1.0287l-1.84884,-0.01822l-1.84884,-0.01822l-0.14644,0.464c-0.08053,0.25519 -0.22928,0.73402 -0.33053,1.06408l-0.18411,0.60008h-1.43944c-1.1221,0 -1.43271,-0.01889 -1.40894,-0.08572zM23.1515,24.8744c-0.09114,-0.29233 -0.35847,-1.15522 -0.59406,-1.91753c-0.23559,-0.76232 -0.44684,-1.36411 -0.46944,-1.33731c-0.04152,0.04922 -1.16049,3.65607 -1.16049,3.74067c0,0.02512 0.53769,0.04568 1.19484,0.04568h1.19484zM29.77437,29.55452c0,-0.01913 -0.52464,-2.49872 -1.16587,-5.5102c-0.64123,-3.01148 -1.16587,-5.51102 -1.16587,-5.55452c0,-0.057 0.36983,-0.07908 1.32407,-0.07908h1.32407l0.60061,3.309c0.33033,1.81995 0.62284,3.38167 0.65001,3.47048c0.03423,0.11189 0.28098,-0.89896 0.80353,-3.29186l0.75413,-3.45334h2.32455l0.75583,3.41164c0.41571,1.87641 0.77125,3.41163 0.79012,3.41161c0.01886,-0.00002 0.30945,-1.51982 0.64575,-3.37736c0.33631,-1.85752 0.63172,-3.40115 0.65647,-3.43028c0.02475,-0.02913 0.63071,-0.04456 1.34658,-0.03429l1.30159,0.01867l-1.14806,5.41367c-0.63143,2.97752 -1.16595,5.48499 -1.18782,5.57214l-0.03978,0.15847h-2.78473l-0.73831,-3.13755c-0.40607,-1.72565 -0.74954,-3.1489 -0.76327,-3.16279c-0.01372,-0.01388 -0.04227,0.04784 -0.06343,0.13716c-0.02116,0.08932 -0.32874,1.4277 -0.68351,2.97419c-0.35477,1.54649 -0.66635,2.89665 -0.69239,3.00039l-0.04735,0.1886h-1.39846c-0.76915,0 -1.39846,-0.01565 -1.39846,-0.03478z"
                    fill="#ffffff" id="path3763 1 1 1" stroke-width="0"></path>
                <path
                    d="M0.35507,24c0,-13.05873 10.5862,-23.64493 23.64493,-23.64493c13.05873,0 23.64493,10.5862 23.64493,23.64493c0,13.05873 -10.5862,23.64493 -23.64493,23.64493c-13.05873,0 -23.64493,-10.5862 -23.64493,-23.64493z"
                    fill="none" id="base 1 5 1 1" stroke-width="1"></path>
                <path
                    d="M0.35507,24c0,-13.05873 10.5862,-23.64493 23.64493,-23.64493c13.05873,0 23.64493,10.5862 23.64493,23.64493c0,13.05873 -10.5862,23.64493 -23.64493,23.64493c-13.05873,0 -23.64493,-10.5862 -23.64493,-23.64493z"
                    fill="none" id="base 1 1 1 1" stroke-width="1"></path>
                <g fill="#000000" font-family="Roboto, sans-serif" font-size="14" font-weight="400"
                    stroke-width="1" text-anchor="start"></g>
                <path d="M0.35507,24v-23.64493h47.28986v23.64493z" fill="none"
                    stroke-width="1"></path>
                <path d="M0.35507,24v-23.64493h47.28986v23.64493z" fill="none"
                    stroke-width="1"></path>
                <path d="M0.35507,24v-23.64493h47.28986v23.64493z" fill="none"
                    stroke-width="1"></path>
                <path d="M0.35507,24v-23.64493h47.28986v23.64493z" fill="none"
                    stroke-width="1"></path>
                <path d="M0.35507,24v-23.64493h47.28986v23.64493z" fill="none"
                    stroke-width="1"></path>
                <g fill="#000000" font-family="Roboto, sans-serif" font-size="14" font-weight="400"
                    id="svg3753 1 1 1" stroke-width="1" text-anchor="start"></g>
                <path d="M0.35507,24v-23.64493h47.28986v23.64493z" fill="none"
                    stroke-width="1"></path>
                <path d="M0.35507,24v-23.64493h47.28986v23.64493z" fill="none"
                    stroke-width="1"></path>
                <path d="M0.35507,24v-23.64493h47.28986v23.64493z" fill="none"
                    stroke-width="1"></path>
                <path d="M0.35507,24v-23.64493h47.28986v23.64493z" fill="none"
                    stroke-width="1"></path>
                <path d="M0.35507,24v-23.64493h47.28986v23.64493z" fill="none"
                    stroke-width="1"></path>
            </g>
        </g>
        <path
            d="M2,24c0,-12.15026 9.84974,-22 22,-22c12.15026,0 22,9.84974 22,22c0,12.15026 -9.84974,22 -22,22c-12.15026,0 -22,-9.84974 -22,-22z"
            fill="none" id="base 1 1 1" stroke-width="1"></path>
        <g fill="#000000" font-family="Roboto, sans-serif" font-size="14" font-weight="400"
            stroke-width="1" text-anchor="start">
            <g>
                <g></g>
                <g id="svg3753 1 1 1 1"></g>
            </g>
        </g>
        <path d="M16,36v-12h30v12z" fill="#404041" filter="url(#dropshadow-banner)" id="banner 1"
            stroke-width="1"></path>
        <text fill="#ffffff" font-family="sans-serif" font-size="8" font-weight="bold"
            stroke-width="1" text-anchor="middle" x="31" y="33">DEV
        </text>
        <rect fill="none" height="22" stroke-width="1" width="44" x="2" y="2"></rect>
        <path d="M2,24v-22h44v22z" fill="none" stroke-width="1"></path>
        <path d="M2,24v-22h44v22z" fill="none" stroke-width="1"></path>
        <path d="M2,24v-22h44v22z" fill="none" stroke-width="1"></path>
        <path d="M2,24v-22h44v22z" fill="none" stroke-width="1"></path>
    </g>
</svg>