<svg version="1.1" xmlns="http://www.w3.org/2000/svg" xmlns:xlink="http://www.w3.org/1999/xlink" width="48" height="48"><defs><linearGradient x1="8.44322" y1="18.79954" x2="44.15294" y2="33.79665" gradientUnits="userSpaceOnUse" id="color-1"><stop offset="0.98" stop-color="#000000" stop-opacity="0.27"></stop><stop offset="1" stop-color="#000000" stop-opacity="0"></stop></linearGradient><filter id="dropshadow-base"><feColorMatrix type="matrix" values="0 0 0 0 0  0 0 0 0 0  0 0 0 0 0  0 0 0 .8 0"></feColorMatrix> <feOffset dx="0" dy="1"></feOffset> <feGaussianBlur stdDeviation="1"></feGaussianBlur> <feComposite in="SourceGraphic"></feComposite></filter><filter id="dropshadow-banner" x="-10%" y="-10%" width="120%" height="130%"><feColorMatrix type="matrix" values="0 0 0 0 0  0 0 0 0 0  0 0 0 0 0  0 0 0 .4 0"></feColorMatrix> <feOffset dx="0" dy="1"></feOffset> <feGaussianBlur stdDeviation="0.5"></feGaussianBlur> <feComposite in="SourceGraphic"></feComposite></filter></defs><g fill="none" fill-rule="nonzero" stroke="none" stroke-width="none" stroke-linecap="butt" stroke-linejoin="miter" stroke-miterlimit="10" stroke-dasharray="" stroke-dashoffset="0" font-family="none" font-weight="none" font-size="none" text-anchor="none" style="mix-blend-mode: normal"><path d="M2,24c0,-12.15026 9.84974,-22 22,-22c12.15026,0 22,9.84974 22,22c0,12.15026 -9.84974,22 -22,22c-12.15026,0 -22,-9.84974 -22,-22z" id="base 1 10" fill="#1976d2" stroke-width="1"></path><path d="M10.89427,18.79954c3.08913,0 3.42755,0.05277 4.3925,0.68481c0.17023,0.1115 0.32144,0.23304 0.45423,0.36584c0,0 0,0 0,0l3.59997,3.59997l1.70441,-4.65061h2.38053l4.59619,4.59619l0.06346,0.17548c0.01808,0.04999 0.10537,0.28663 0.24202,0.65636c-0.01317,-0.06186 -0.02639,-0.12398 -0.03967,-0.18635c-0.59662,-2.80198 -1.08476,-5.12762 -1.08476,-5.1681c0,-0.05303 0.3441,-0.07358 1.23196,-0.07358h1.23196l2.1503,2.1503l0.46261,-2.1184h2.16283l2.21953,2.21953c0.23187,-1.25666 0.41204,-2.18328 0.43049,-2.205c0.02302,-0.0271 0.58683,-0.04146 1.2529,-0.03191l1.21103,0.01738l4.59619,4.59619l-1.06819,5.03705c-0.5875,2.77038 -1.08484,5.1034 -1.1052,5.1845l-0.03701,0.14745h-2.591l-2.2555,-2.2555c-0.25739,1.12005 -0.4607,1.99989 -0.48083,2.08002l-0.04406,0.17548h-1.30117c-0.70476,0 -1.28334,-0.01412 -1.30076,-0.03155l-3.35083,-3.35083c0.66171,1.78546 1.1976,3.23004 1.21434,3.27202c0.04238,0.10625 -0.03556,0.11193 -1.31463,0.09572l-1.35968,-0.01724l-1.92745,-1.92745l-2.1059,-0.02076l-0.13625,0.43172c-0.07494,0.23744 -0.21333,0.68296 -0.30754,0.99005l-0.1713,0.55833h-1.3393c-0.92789,0 -1.2594,-0.01389 -1.30614,-0.06063l-0.77717,-0.77717c0.22926,0.45446 0.37487,0.75312 0.37487,0.77271c0,0.04214 -0.47191,0.06506 -1.33978,0.06506h-1.33978l-3.19088,-3.19088v3.19088h-2.55237l-4.59619,-4.59619l-0.00003,-5.20043v-5.20046zM25.38453,24.09709l-0.22734,0.62032l0.72627,0.72627c-0.16244,-0.43835 -0.33056,-0.8921 -0.49893,-1.34659zM16.03293,29.19725c0.54323,-0.00763 0.83313,-0.02885 0.83313,-0.06188c0,-0.02208 -0.18512,-0.39897 -0.46654,-0.95394h-0.80774l-2.55237,-2.55237v0.57467zM16.23651,23.39728c-0.09532,-0.00048 -0.19385,-0.00082 -0.29576,-0.00107l0.20134,0.20134c0.03407,-0.06483 0.06553,-0.13156 0.09442,-0.20028zM32.48687,26.76674c0.00857,0.04048 0.01719,0.0812 0.02587,0.12215c0.00597,-0.02598 0.01197,-0.05208 0.01799,-0.0783zM37.80178,27.10081l-1.41808,-1.41808l-0.12209,0.55907l1.4205,1.4205c0.03717,-0.17427 0.07718,-0.362 0.11967,-0.56149z" fill="url(#color-1)" stroke-width="1"></path><path d="M8.44322,24v-5.20046h2.45104c3.08913,0 3.42755,0.05276 4.3925,0.68481c0.82679,0.54156 1.20511,1.31999 1.20226,2.47375c-0.00329,1.3286 -0.45339,2.16902 -1.47869,2.76098l-0.30686,0.17717l1.08129,2.08704c0.59471,1.14787 1.08129,2.11632 1.08129,2.15211c0,0.04215 -0.47191,0.06506 -1.33978,0.06506h-1.33978l-0.92566,-1.85047l-0.92566,-1.85047h-0.66978h-0.66978v1.85047v1.85047h-1.27619h-1.27619zM13.14015,23.49103c0.57104,-0.16958 0.85545,-0.62147 0.85308,-1.3554c-0.00166,-0.51097 -0.1422,-0.86986 -0.43817,-1.1189c-0.2978,-0.25059 -0.57364,-0.30216 -1.61828,-0.30255l-0.94119,-0.00033v1.43571v1.43571h0.91365c0.61989,0 1.01566,-0.03029 1.23091,-0.09421zM17.26362,29.1207c0.01561,-0.04387 0.87289,-2.38407 1.90507,-5.20046l1.87669,-5.1207h1.19027h1.19027l0.06346,0.17548c0.1276,0.35284 3.7035,10.00557 3.74717,10.11506c0.04238,0.10626 -0.03556,0.11193 -1.31462,0.09571l-1.35967,-0.01724l-0.29644,-0.95714l-0.29644,-0.95714l-1.72022,-0.01695l-1.72022,-0.01695l-0.13625,0.43172c-0.07493,0.23744 -0.21333,0.68296 -0.30754,0.99005l-0.1713,0.55833h-1.3393c-1.04404,0 -1.33304,-0.01758 -1.31092,-0.07976zM23.21053,24.81357c-0.0848,-0.27199 -0.33353,-1.07485 -0.55273,-1.78413c-0.2192,-0.70929 -0.41575,-1.26921 -0.43678,-1.24428c-0.03863,0.0458 -1.07976,3.40172 -1.07976,3.48044c0,0.02337 0.50028,0.0425 1.11172,0.0425h1.11172zM29.37266,29.1681c0,-0.0178 -0.48814,-2.32489 -1.08476,-5.12687c-0.59662,-2.80198 -1.08476,-5.12763 -1.08476,-5.1681c0,-0.05303 0.3441,-0.07358 1.23196,-0.07358h1.23196l0.55883,3.0788c0.30735,1.69334 0.57951,3.14641 0.60479,3.22905c0.03185,0.10411 0.26143,-0.83642 0.74763,-3.06285l0.70167,-3.2131h1.08142h1.08142l0.70325,3.1743c0.38679,1.74587 0.7176,3.17429 0.73515,3.17427c0.01755,-0.00002 0.28792,-1.41409 0.60083,-3.1424c0.31291,-1.7283 0.58777,-3.16454 0.6108,-3.19164c0.02303,-0.0271 0.58683,-0.04146 1.2529,-0.0319l1.21104,0.01737l-1.06819,5.03705c-0.5875,2.77038 -1.08484,5.10341 -1.10519,5.1845l-0.03701,0.14745h-1.2955h-1.2955l-0.68695,-2.91928c-0.37782,-1.6056 -0.6974,-2.92984 -0.71017,-2.94276c-0.01277,-0.01291 -0.03933,0.04451 -0.05902,0.12762c-0.01969,0.08311 -0.30587,1.32838 -0.63596,2.76728c-0.33009,1.4389 -0.61999,2.69514 -0.64422,2.79166l-0.04406,0.17548h-1.30117c-0.71564,0 -1.30117,-0.01456 -1.30117,-0.03236z" id="path3763 1 1" fill="none" stroke-width="0"></path><path d="M8.44322,18.79954h2.45104c3.08913,0 3.42755,0.05276 4.3925,0.68481c0.82679,0.54156 1.20511,1.31999 1.20226,2.47375c-0.00329,1.3286 -0.45339,2.16902 -1.47869,2.76098l-0.30686,0.17717l1.08129,2.08704c0.59471,1.14787 1.08129,2.11632 1.08129,2.15211c0,0.04215 -0.47191,0.06506 -1.33978,0.06506h-1.33978l-0.92566,-1.85047l-0.92566,-1.85047h-1.33957v3.70094h-2.55237zM13.14015,23.49103c0.57104,-0.16958 0.85545,-0.62147 0.85308,-1.3554c-0.00166,-0.51097 -0.1422,-0.86986 -0.43817,-1.1189c-0.2978,-0.25059 -0.57364,-0.30216 -1.61828,-0.30255l-0.94119,-0.00033v2.87142h0.91365c0.61989,0 1.01566,-0.03029 1.23091,-0.09421zM17.26362,29.1207c0.01561,-0.04387 0.87289,-2.38407 1.90507,-5.20046l1.87669,-5.1207h2.38054l0.06346,0.17548c0.1276,0.35284 3.7035,10.00557 3.74717,10.11506c0.04238,0.10626 -0.03556,0.11193 -1.31462,0.09571l-1.35967,-0.01724l-0.29644,-0.95714l-0.29644,-0.95714l-1.72022,-0.01695l-1.72022,-0.01695l-0.13625,0.43172c-0.07493,0.23744 -0.21333,0.68296 -0.30754,0.99005l-0.1713,0.55833h-1.3393c-1.04404,0 -1.33304,-0.01758 -1.31092,-0.07976zM23.21053,24.81357c-0.0848,-0.27199 -0.33353,-1.07485 -0.55273,-1.78413c-0.2192,-0.70929 -0.41575,-1.26921 -0.43678,-1.24428c-0.03863,0.0458 -1.07976,3.40172 -1.07976,3.48044c0,0.02337 0.50028,0.0425 1.11172,0.0425h1.11172zM29.37266,29.1681c0,-0.0178 -0.48814,-2.32489 -1.08476,-5.12687c-0.59662,-2.80198 -1.08476,-5.12763 -1.08476,-5.1681c0,-0.05303 0.3441,-0.07358 1.23196,-0.07358h1.23196l0.55883,3.0788c0.30735,1.69334 0.57951,3.14641 0.60479,3.22905c0.03185,0.10411 0.26143,-0.83642 0.74763,-3.06285l0.70167,-3.2131h2.16284l0.70325,3.1743c0.38679,1.74587 0.7176,3.17429 0.73515,3.17427c0.01755,-0.00002 0.28792,-1.41409 0.60083,-3.1424c0.31291,-1.7283 0.58777,-3.16454 0.6108,-3.19164c0.02303,-0.0271 0.58683,-0.04146 1.2529,-0.0319l1.21104,0.01737l-1.06819,5.03705c-0.5875,2.77038 -1.08484,5.10341 -1.10519,5.1845l-0.03701,0.14745h-2.591l-0.68695,-2.91928c-0.37782,-1.6056 -0.6974,-2.92984 -0.71017,-2.94276c-0.01277,-0.01291 -0.03933,0.04451 -0.05902,0.12762c-0.01969,0.08311 -0.30587,1.32838 -0.63596,2.76728c-0.33009,1.4389 -0.61999,2.69514 -0.64422,2.79166l-0.04406,0.17548h-1.30117c-0.71564,0 -1.30117,-0.01456 -1.30117,-0.03236z" id="path3763 1 1" fill="#ffffff" stroke-width="0"></path><path d="M2,24c0,-12.15026 9.84974,-22 22,-22c12.15026,0 22,9.84974 22,22c0,12.15026 -9.84974,22 -22,22c-12.15026,0 -22,-9.84974 -22,-22z" id="base 1 5 1" fill="none" stroke-width="1"></path><path d="M2,24c0,-12.15026 9.84974,-22 22,-22c12.15026,0 22,9.84974 22,22c0,12.15026 -9.84974,22 -22,22c-12.15026,0 -22,-9.84974 -22,-22z" id="base 1 1 1" fill="none" stroke-width="1"></path><g fill="#000000" stroke-width="1" font-family="Roboto, sans-serif" font-weight="400" font-size="14" text-anchor="start"></g><rect x="2" y="2" width="44" height="22" fill="none" stroke-width="1"></rect><path d="M2,24v-22h44v22z" fill="none" stroke-width="1"></path><path d="M2,24v-22h44v22z" fill="none" stroke-width="1"></path><path d="M2,24v-22h44v22z" fill="none" stroke-width="1"></path><path d="M2,24v-22h44v22z" fill="none" stroke-width="1"></path><g id="svg3753 1 1" fill="#000000" stroke-width="1" font-family="Roboto, sans-serif" font-weight="400" font-size="14" text-anchor="start"></g><rect x="2" y="2" width="44" height="22" fill="none" stroke-width="1"></rect><path d="M2,24v-22h44v22z" fill="none" stroke-width="1"></path><path d="M2,24v-22h44v22z" fill="none" stroke-width="1"></path><path d="M2,24v-22h44v22z" fill="none" stroke-width="1"></path><path d="M2,24v-22h44v22z" fill="none" stroke-width="1"></path></g></svg>